<svg width="177" height="50" viewBox="0 0 177 50" fill="none" xmlns="http://www.w3.org/2000/svg">
<rect width="50" height="50" rx="6" fill="#354D6A"/>
<circle cx="25" cy="25" r="22" fill="#EDDDE0" fill-opacity="0.866667"/>
<path d="M11.712 33.32C11.0507 33.32 10.4213 33.1387 9.824 32.776C9.22667 32.392 8.77867 31.816 8.48 31.048C8.37333 30.7707 8.29867 30.4827 8.256 30.184C8.21333 29.864 8.192 29.5547 8.192 29.256C8.192 28.9573 8.24533 28.808 8.352 28.808C8.48 28.808 8.544 28.8933 8.544 29.064C8.544 30.0667 8.78933 30.824 9.28 31.336C9.792 31.848 10.4213 32.104 11.168 32.104C11.9147 32.104 12.6293 31.8907 13.312 31.464C14.016 31.0373 14.6667 30.4933 15.264 29.832C16.2453 28.7653 17.0773 27.688 17.76 26.6C18.4427 25.4907 19.0613 24.36 19.616 23.208C20.192 22.0347 20.768 20.8187 21.344 19.56C21.7067 18.792 22.1547 18.12 22.688 17.544C23.2427 16.968 23.904 16.5733 24.672 16.36L24.704 16.328H22.944C22.1973 16.328 21.408 16.36 20.576 16.424C19.744 16.488 18.9867 16.6267 18.304 16.84C17.6427 17.0533 17.1627 17.3733 16.864 17.8C16.672 18.0773 16.576 18.3973 16.576 18.76C16.576 19.1227 16.672 19.4747 16.864 19.816C17.056 20.1573 17.3013 20.4027 17.6 20.552C17.6427 20.5947 17.664 20.6267 17.664 20.648C17.664 20.6907 17.6107 20.744 17.504 20.808C17.4187 20.8507 17.3227 20.8613 17.216 20.84C17.0453 20.7333 16.832 20.5627 16.576 20.328C16.32 20.072 16.0853 19.8053 15.872 19.528C15.68 19.2507 15.552 19.016 15.488 18.824C15.4027 18.568 15.36 18.312 15.36 18.056C15.36 17.544 15.5413 17.128 15.904 16.808C16.288 16.488 16.7787 16.2427 17.376 16.072C17.9733 15.9013 18.6133 15.784 19.296 15.72C20 15.6347 20.672 15.592 21.312 15.592C21.9733 15.5707 22.5387 15.56 23.008 15.56H26.464C26.5067 15.56 26.528 15.5707 26.528 15.592C26.528 15.656 26.4533 15.752 26.304 15.88C26.176 15.9867 26.0907 16.04 26.048 16.04C25.5147 16.1467 25.12 16.4347 24.864 16.904C24.608 17.352 24.4907 18.0773 24.512 19.08C24.512 19.08 24.512 19.3147 24.512 19.784C24.5333 20.2533 24.5547 20.8613 24.576 21.608C24.5973 22.3547 24.6187 23.1547 24.64 24.008C24.6613 24.8613 24.6827 25.6827 24.704 26.472C24.7253 27.2613 24.7467 27.9227 24.768 28.456V28.648L35.872 16.936C36.576 16.1893 37.2693 15.56 37.952 15.048C38.656 14.5147 39.3813 14.28 40.128 14.344C40.1493 14.344 40.16 14.3547 40.16 14.376C40.1813 14.376 40.192 14.376 40.192 14.376C40.192 14.44 40.1493 14.5147 40.064 14.6C39.9787 14.6853 39.8827 14.7387 39.776 14.76C39.2213 14.7387 38.72 14.952 38.272 15.4C37.824 15.848 37.408 16.3813 37.024 17C36.832 17.32 36.544 17.832 36.16 18.536C35.776 19.2187 35.3387 20.0293 34.848 20.968C34.3787 21.9067 33.8987 22.8987 33.408 23.944C32.9173 24.9893 32.4587 26.0133 32.032 27.016C31.6267 28.0187 31.296 28.936 31.04 29.768C30.784 30.5787 30.656 31.24 30.656 31.752C30.656 32.3493 30.8587 32.648 31.264 32.648C31.4347 32.648 31.616 32.6053 31.808 32.52C32.0853 32.4133 32.3947 32.2533 32.736 32.04C33.0773 31.8267 33.3867 31.5813 33.664 31.304C34.2187 30.7707 34.7093 30.2267 35.136 29.672C35.5627 29.096 35.8187 28.7653 35.904 28.68C35.968 28.5947 36.0213 28.552 36.064 28.552C36.1493 28.552 36.192 28.616 36.192 28.744C36.192 28.872 36.1493 28.9893 36.064 29.096C35.8933 29.3093 35.6053 29.6827 35.2 30.216C34.7947 30.728 34.3147 31.2507 33.76 31.784C33.2267 32.3173 32.6507 32.7227 32.032 33C31.84 33.0853 31.6373 33.1493 31.424 33.192C31.2107 33.256 30.9973 33.288 30.784 33.288C30.3147 33.288 29.888 33.1493 29.504 32.872C29.1413 32.5733 28.96 32.0827 28.96 31.4C28.96 30.7387 29.1093 29.992 29.408 29.16C29.728 28.3067 30.08 27.4853 30.464 26.696C30.8693 25.8853 31.2 25.2027 31.456 24.648C31.7333 24.072 32.0853 23.336 32.512 22.44C32.9387 21.544 33.4293 20.6373 33.984 19.72L24.768 29.448C24.7467 29.6187 24.672 29.7893 24.544 29.96C24.416 30.1093 24.2133 30.2373 23.936 30.344C23.7867 30.408 23.584 30.5787 23.328 30.856C23.072 31.1333 22.9013 31.3253 22.816 31.432C22.816 31.4533 22.784 31.464 22.72 31.464C22.656 31.464 22.592 31.4427 22.528 31.4C22.464 31.3573 22.4427 31.3253 22.464 31.304C23.0187 30.6 23.3067 29.6293 23.328 28.392L23.36 27.624C23.4027 26.728 23.4347 25.7893 23.456 24.808C23.4773 23.8053 23.488 22.8773 23.488 22.024C23.5093 21.1493 23.52 20.4453 23.52 19.912C23.52 19.3573 23.52 19.08 23.52 19.08C23.52 18.568 23.5947 18.12 23.744 17.736C23.8933 17.352 24.0747 17.0213 24.288 16.744C23.9253 17.0213 23.5733 17.352 23.232 17.736C22.8907 18.12 22.6027 18.5467 22.368 19.016C22.048 19.6773 21.6853 20.5307 21.28 21.576C20.8747 22.6213 20.4053 23.7307 19.872 24.904C19.36 26.0773 18.784 27.2293 18.144 28.36C17.5253 29.4693 16.832 30.4293 16.064 31.24C15.5307 31.816 14.848 32.3067 14.016 32.712C13.2053 33.1173 12.4373 33.32 11.712 33.32Z" fill="#354D6A"/>
<path d="M61.176 31.36C60.432 31.36 59.724 31.156 59.052 30.748C58.38 30.316 57.876 29.668 57.54 28.804C57.42 28.492 57.336 28.168 57.288 27.832C57.24 27.472 57.216 27.124 57.216 26.788C57.216 26.452 57.276 26.284 57.396 26.284C57.54 26.284 57.612 26.38 57.612 26.572C57.612 27.7 57.888 28.552 58.44 29.128C59.016 29.704 59.724 29.992 60.564 29.992C61.404 29.992 62.208 29.752 62.976 29.272C63.768 28.792 64.5 28.18 65.172 27.436C66.276 26.236 67.212 25.024 67.98 23.8C68.748 22.552 69.444 21.28 70.068 19.984C70.716 18.664 71.364 17.296 72.012 15.88C72.42 15.016 72.924 14.26 73.524 13.612C74.148 12.964 74.892 12.52 75.756 12.28L75.792 12.244H73.812C72.972 12.244 72.084 12.28 71.148 12.352C70.212 12.424 69.36 12.58 68.592 12.82C67.848 13.06 67.308 13.42 66.972 13.9C66.756 14.212 66.648 14.572 66.648 14.98C66.648 15.388 66.756 15.784 66.972 16.168C67.188 16.552 67.464 16.828 67.8 16.996C67.848 17.044 67.872 17.08 67.872 17.104C67.872 17.152 67.812 17.212 67.692 17.284C67.596 17.332 67.488 17.344 67.368 17.32C67.176 17.2 66.936 17.008 66.648 16.744C66.36 16.456 66.096 16.156 65.856 15.844C65.64 15.532 65.496 15.268 65.424 15.052C65.328 14.764 65.28 14.476 65.28 14.188C65.28 13.612 65.484 13.144 65.892 12.784C66.324 12.424 66.876 12.148 67.548 11.956C68.22 11.764 68.94 11.632 69.708 11.56C70.5 11.464 71.256 11.416 71.976 11.416C72.72 11.392 73.356 11.38 73.884 11.38H77.772C77.82 11.38 77.844 11.392 77.844 11.416C77.844 11.488 77.76 11.596 77.592 11.74C77.448 11.86 77.352 11.92 77.304 11.92C76.704 12.04 76.26 12.364 75.972 12.892C75.684 13.396 75.552 14.212 75.576 15.34C75.576 15.34 75.576 15.604 75.576 16.132C75.6 16.66 75.624 17.344 75.648 18.184C75.672 19.024 75.696 19.924 75.72 20.884C75.744 21.844 75.768 22.768 75.792 23.656C75.816 24.544 75.84 25.288 75.864 25.888V26.104L88.356 12.928C89.148 12.088 89.928 11.38 90.696 10.804C91.488 10.204 92.304 9.94 93.144 10.012C93.168 10.012 93.18 10.024 93.18 10.048C93.204 10.048 93.216 10.048 93.216 10.048C93.216 10.12 93.168 10.204 93.072 10.3C92.976 10.396 92.868 10.456 92.748 10.48C92.124 10.456 91.56 10.696 91.056 11.2C90.552 11.704 90.084 12.304 89.652 13C89.436 13.36 89.112 13.936 88.68 14.728C88.248 15.496 87.756 16.408 87.204 17.464C86.676 18.52 86.136 19.636 85.584 20.812C85.032 21.988 84.516 23.14 84.036 24.268C83.58 25.396 83.208 26.428 82.92 27.364C82.632 28.276 82.488 29.02 82.488 29.596C82.488 30.268 82.716 30.604 83.172 30.604C83.364 30.604 83.568 30.556 83.784 30.46C84.096 30.34 84.444 30.16 84.828 29.92C85.212 29.68 85.56 29.404 85.872 29.092C86.496 28.492 87.048 27.88 87.528 27.256C88.008 26.608 88.296 26.236 88.392 26.14C88.464 26.044 88.524 25.996 88.572 25.996C88.668 25.996 88.716 26.068 88.716 26.212C88.716 26.356 88.668 26.488 88.572 26.608C88.38 26.848 88.056 27.268 87.6 27.868C87.144 28.444 86.604 29.032 85.98 29.632C85.38 30.232 84.732 30.688 84.036 31C83.82 31.096 83.592 31.168 83.352 31.216C83.112 31.288 82.872 31.324 82.632 31.324C82.104 31.324 81.624 31.168 81.192 30.856C80.784 30.52 80.58 29.968 80.58 29.2C80.58 28.456 80.748 27.616 81.084 26.68C81.444 25.72 81.84 24.796 82.272 23.908C82.728 22.996 83.1 22.228 83.388 21.604C83.7 20.956 84.096 20.128 84.576 19.12C85.056 18.112 85.608 17.092 86.232 16.06L75.864 27.004C75.84 27.196 75.756 27.388 75.612 27.58C75.468 27.748 75.24 27.892 74.928 28.012C74.76 28.084 74.532 28.276 74.244 28.588C73.956 28.9 73.764 29.116 73.668 29.236C73.668 29.26 73.632 29.272 73.56 29.272C73.488 29.272 73.416 29.248 73.344 29.2C73.272 29.152 73.248 29.116 73.272 29.092C73.896 28.3 74.22 27.208 74.244 25.816L74.28 24.952C74.328 23.944 74.364 22.888 74.388 21.784C74.412 20.656 74.424 19.612 74.424 18.652C74.448 17.668 74.46 16.876 74.46 16.276C74.46 15.652 74.46 15.34 74.46 15.34C74.46 14.764 74.544 14.26 74.712 13.828C74.88 13.396 75.084 13.024 75.324 12.712C74.916 13.024 74.52 13.396 74.136 13.828C73.752 14.26 73.428 14.74 73.164 15.268C72.804 16.012 72.396 16.972 71.94 18.148C71.484 19.324 70.956 20.572 70.356 21.892C69.78 23.212 69.132 24.508 68.412 25.78C67.716 27.028 66.936 28.108 66.072 29.02C65.472 29.668 64.704 30.22 63.768 30.676C62.856 31.132 61.992 31.36 61.176 31.36ZM88.6828 31.072C88.2988 31.072 87.9508 31 87.6388 30.856C87.3508 30.688 87.2068 30.34 87.2068 29.812C87.2068 28.972 87.4228 28.132 87.8548 27.292C88.2868 26.428 88.7308 25.672 89.1868 25.024C89.5948 24.472 90.0508 23.956 90.5548 23.476C91.0828 22.972 91.6468 22.54 92.2468 22.18C92.6308 21.94 93.1468 21.688 93.7948 21.424C94.4668 21.136 95.0308 20.992 95.4868 20.992C95.8708 20.992 96.2068 21.1 96.4948 21.316C96.7828 21.508 96.9268 21.868 96.9268 22.396C96.9268 23.212 96.7108 24.052 96.2788 24.916C95.8708 25.756 95.4388 26.5 94.9828 27.148C94.7668 27.436 94.5508 27.712 94.3348 27.976C94.1188 28.216 93.8788 28.468 93.6148 28.732C94.5028 28.732 95.3188 28.48 96.0628 27.976C96.8068 27.448 97.4548 26.812 98.0068 26.068L98.0788 25.996C98.1508 25.996 98.1868 26.068 98.1868 26.212C98.1868 26.38 98.1388 26.536 98.0428 26.68C97.5628 27.352 96.9628 27.952 96.2428 28.48C95.5228 28.984 94.7068 29.236 93.7948 29.236C93.6988 29.236 93.6028 29.236 93.5068 29.236C93.4108 29.236 93.3148 29.224 93.2188 29.2C91.8748 30.448 90.3628 31.072 88.6828 31.072ZM89.6188 30.46C89.9548 30.46 90.3148 30.34 90.6988 30.1C91.1068 29.86 91.4188 29.632 91.6348 29.416C92.0428 29.008 92.4148 28.576 92.7508 28.12C93.0868 27.64 93.3988 27.16 93.6868 26.68C94.0228 26.104 94.3588 25.42 94.6948 24.628C95.0308 23.836 95.1988 23.092 95.1988 22.396C95.1988 21.844 95.0068 21.568 94.6228 21.568C94.3108 21.568 93.9268 21.7 93.4708 21.964C93.0388 22.228 92.7148 22.468 92.4988 22.684C91.6828 23.524 90.9988 24.436 90.4468 25.42C90.1348 25.972 89.7988 26.62 89.4388 27.364C89.0788 28.108 88.8988 28.792 88.8988 29.416C88.8988 29.512 88.8988 29.608 88.8988 29.704C88.9228 29.776 88.9468 29.86 88.9708 29.956C89.0668 30.292 89.2828 30.46 89.6188 30.46ZM99.1462 31.288C98.2582 31.288 97.6342 31.12 97.2742 30.784C96.9142 30.448 96.7342 30.016 96.7342 29.488C96.7342 28.792 96.9622 28.024 97.4182 27.184C97.8742 26.32 98.3062 25.6 98.7142 25.024C99.1222 24.472 99.5782 23.956 100.082 23.476C100.61 22.972 101.174 22.54 101.774 22.18C102.158 21.94 102.674 21.688 103.322 21.424C103.994 21.136 104.558 20.992 105.014 20.992C105.566 20.992 105.95 21.124 106.166 21.388C106.382 21.628 106.49 21.928 106.49 22.288C106.49 22.576 106.442 22.876 106.346 23.188C106.25 23.476 106.142 23.752 106.022 24.016C105.95 24.16 105.842 24.268 105.698 24.34C105.554 24.388 105.482 24.364 105.482 24.268C105.482 24.148 105.494 24.04 105.518 23.944C105.542 23.848 105.554 23.74 105.554 23.62C105.554 23.164 105.446 22.72 105.23 22.288C105.038 21.832 104.738 21.604 104.33 21.604C103.898 21.604 103.43 21.76 102.926 22.072C102.422 22.36 102.074 22.612 101.882 22.828C101.258 23.476 100.646 24.28 100.046 25.24C99.4702 26.2 99.0502 27.112 98.7862 27.976C98.6182 28.48 98.5342 28.912 98.5342 29.272C98.5342 29.68 98.6422 29.968 98.8582 30.136C99.0742 30.304 99.3382 30.388 99.6502 30.388C99.8902 30.388 100.142 30.352 100.406 30.28C100.694 30.208 100.994 30.124 101.306 30.028C102.026 29.788 102.746 29.416 103.466 28.912C104.21 28.384 104.882 27.832 105.482 27.256C106.082 26.656 106.538 26.14 106.85 25.708C106.898 25.756 106.922 25.828 106.922 25.924C106.922 26.044 106.874 26.188 106.778 26.356C106.682 26.5 106.61 26.62 106.562 26.716C106.058 27.388 105.398 28.084 104.582 28.804C103.766 29.5 102.878 30.088 101.918 30.568C100.982 31.048 100.058 31.288 99.1462 31.288ZM112.656 31.18C112.056 31.18 111.6 30.976 111.288 30.568C111.096 30.28 110.904 29.848 110.712 29.272C110.52 28.696 110.352 28.096 110.208 27.472C110.064 26.848 109.944 26.344 109.848 25.96C109.176 26.824 108.576 27.688 108.048 28.552C107.544 29.416 107.208 30.088 107.04 30.568C106.992 30.712 106.824 30.832 106.536 30.928C106.272 31.024 106.008 31.072 105.744 31.072C105.36 31.072 105.216 30.952 105.312 30.712C106.056 29.056 106.764 27.46 107.436 25.924C108.108 24.388 108.816 22.84 109.56 21.28C110.328 19.72 111.192 18.1 112.152 16.42C112.824 15.196 113.628 14.02 114.564 12.892C115.524 11.74 116.544 10.804 117.624 10.084C118.704 9.34 119.796 8.968 120.9 8.968C121.26 8.968 121.596 9.064 121.908 9.256C122.22 9.448 122.376 9.748 122.376 10.156V11.2C122.376 11.296 122.304 11.344 122.16 11.344C122.088 11.344 122.052 11.32 122.052 11.272C122.052 10.888 121.884 10.636 121.548 10.516C121.212 10.372 120.888 10.3 120.576 10.3C119.736 10.3 118.884 10.468 118.02 10.804C117.06 11.188 116.256 11.764 115.608 12.532C114.96 13.3 114.36 14.116 113.808 14.98C113.088 16.084 112.38 17.38 111.684 18.868C110.988 20.332 110.34 21.808 109.74 23.296C109.164 24.784 108.648 26.128 108.192 27.328C108.456 26.992 108.72 26.656 108.984 26.32C109.248 25.984 109.5 25.672 109.74 25.384C109.74 25.336 109.728 25.288 109.704 25.24C109.704 25.192 109.704 25.144 109.704 25.096C109.704 24.928 109.74 24.784 109.812 24.664C109.884 24.544 109.98 24.4 110.1 24.232C110.268 23.992 110.424 23.812 110.568 23.692C110.712 23.548 110.868 23.368 111.036 23.152L111.144 23.764C112.2 22.684 113.124 21.904 113.916 21.424C114.468 21.088 115.008 20.92 115.536 20.92C116.064 20.92 116.328 21.124 116.328 21.532C116.328 21.868 116.16 22.288 115.824 22.792C115.704 22.96 115.632 23.08 115.608 23.152C115.584 23.224 115.536 23.296 115.464 23.368C115.44 23.392 115.392 23.392 115.32 23.368C115.248 23.344 115.212 23.308 115.212 23.26C115.212 22.972 115.116 22.792 114.924 22.72C114.732 22.624 114.516 22.576 114.276 22.576C113.82 22.576 113.328 22.744 112.8 23.08C112.296 23.392 111.78 23.824 111.252 24.376C111.372 24.976 111.504 25.636 111.648 26.356C111.816 27.052 111.996 27.7 112.188 28.3C112.38 28.9 112.56 29.344 112.728 29.632C112.848 29.824 113.016 29.956 113.232 30.028C113.448 30.076 113.628 30.1 113.772 30.1C114.108 30.1 114.492 29.932 114.924 29.596C115.38 29.236 115.836 28.816 116.292 28.336C116.772 27.832 117.204 27.34 117.588 26.86C117.996 26.38 118.308 25.996 118.524 25.708C118.62 25.828 118.644 25.948 118.596 26.068C118.572 26.212 118.5 26.368 118.38 26.536C118.284 26.68 118.188 26.812 118.092 26.932C117.612 27.532 117.096 28.144 116.544 28.768C115.992 29.368 115.404 29.908 114.78 30.388C114.516 30.604 114.192 30.796 113.808 30.964C113.424 31.108 113.04 31.18 112.656 31.18ZM143.514 32.08C143.442 32.08 143.37 32.056 143.298 32.008C143.25 31.96 143.238 31.924 143.262 31.9C143.43 31.684 143.562 31.444 143.658 31.18C143.778 30.94 143.886 30.688 143.982 30.424C143.67 28.744 143.25 26.992 142.722 25.168C142.218 23.344 141.666 21.52 141.066 19.696C140.49 17.848 139.938 16.096 139.41 14.44C139.242 14.56 139.062 14.848 138.87 15.304C138.702 15.76 138.582 16.096 138.51 16.312C138.198 17.128 137.826 18.088 137.394 19.192C136.986 20.272 136.518 21.4 135.99 22.576C135.486 23.728 134.91 24.868 134.262 25.996C133.638 27.1 132.942 28.108 132.174 29.02C131.814 29.476 131.322 29.884 130.698 30.244C130.074 30.58 129.426 30.844 128.754 31.036C128.082 31.252 127.47 31.36 126.918 31.36C126.174 31.36 125.454 31.156 124.758 30.748C124.086 30.316 123.582 29.668 123.246 28.804C123.15 28.492 123.078 28.168 123.03 27.832C122.982 27.472 122.958 27.124 122.958 26.788C122.958 26.452 123.018 26.284 123.138 26.284C123.258 26.284 123.318 26.38 123.318 26.572C123.318 27.7 123.63 28.636 124.254 29.38C124.878 30.124 125.622 30.496 126.486 30.496C127.326 30.496 128.166 30.292 129.006 29.884C129.846 29.476 130.602 28.912 131.274 28.192C132.354 26.992 133.266 25.72 134.01 24.376C134.754 23.032 135.414 21.64 135.99 20.2C136.566 18.76 137.154 17.32 137.754 15.88C138.114 14.968 138.618 14.176 139.266 13.504C139.914 12.832 140.67 12.412 141.534 12.244H139.554C138.714 12.244 137.826 12.28 136.89 12.352C135.954 12.424 135.102 12.58 134.334 12.82C133.566 13.06 133.014 13.42 132.678 13.9C132.486 14.188 132.39 14.536 132.39 14.944C132.39 15.376 132.498 15.784 132.714 16.168C132.93 16.552 133.206 16.828 133.542 16.996C133.59 17.044 133.614 17.068 133.614 17.068C133.614 17.14 133.554 17.212 133.434 17.284C133.338 17.332 133.23 17.344 133.11 17.32C132.918 17.2 132.678 17.008 132.39 16.744C132.102 16.456 131.838 16.156 131.598 15.844C131.382 15.532 131.238 15.268 131.166 15.052C131.07 14.764 131.022 14.476 131.022 14.188C131.022 13.612 131.226 13.144 131.634 12.784C132.066 12.424 132.618 12.148 133.29 11.956C133.962 11.764 134.682 11.632 135.45 11.56C136.242 11.464 136.998 11.416 137.718 11.416C138.438 11.392 139.062 11.38 139.59 11.38H143.946C144.066 11.356 144.066 11.44 143.946 11.632C143.85 11.824 143.718 12.016 143.55 12.208C143.406 12.376 143.286 12.46 143.19 12.46C142.95 12.436 142.578 12.484 142.074 12.604C141.594 12.7 141.258 12.82 141.066 12.964C141.138 13.876 141.306 14.944 141.57 16.168C141.858 17.392 142.194 18.688 142.578 20.056C142.962 21.4 143.382 22.756 143.838 24.124C144.318 25.468 144.786 26.728 145.242 27.904C145.626 26.992 146.058 25.876 146.538 24.556C147.018 23.236 147.522 21.832 148.05 20.344C148.602 18.856 149.166 17.416 149.742 16.024C150.342 14.608 150.93 13.348 151.506 12.244C152.106 11.14 152.694 10.324 153.27 9.796C153.558 9.532 153.906 9.328 154.314 9.184C154.722 9.016 155.106 8.932 155.466 8.932C155.802 8.932 156.09 9.016 156.33 9.184C156.57 9.328 156.678 9.568 156.654 9.904L156.618 11.2C156.618 11.224 156.558 11.248 156.438 11.272C156.318 11.296 156.27 11.296 156.294 11.272C156.318 10.96 156.198 10.744 155.934 10.624C155.67 10.48 155.454 10.408 155.286 10.408C154.782 10.384 154.242 10.696 153.666 11.344C153.114 11.992 152.538 12.844 151.938 13.9C151.338 14.956 150.75 16.12 150.174 17.392C149.598 18.64 149.046 19.9 148.518 21.172C148.014 22.42 147.558 23.572 147.15 24.628C146.742 25.684 146.406 26.512 146.142 27.112C145.902 27.616 145.782 28.108 145.782 28.588C145.782 28.66 145.782 28.732 145.782 28.804C145.782 28.876 145.794 28.948 145.818 29.02C145.818 29.116 145.83 29.224 145.854 29.344C145.902 29.464 145.938 29.584 145.962 29.704C145.962 29.728 145.962 29.752 145.962 29.776C145.986 29.8 145.998 29.836 145.998 29.884C145.998 30.076 145.902 30.244 145.71 30.388C145.47 30.556 145.206 30.7 144.918 30.82C144.75 30.892 144.51 31.072 144.198 31.36C143.91 31.672 143.73 31.888 143.658 32.008C143.61 32.056 143.562 32.08 143.514 32.08ZM151.964 31.288C150.98 31.288 150.296 31.096 149.912 30.712C149.528 30.328 149.336 29.86 149.336 29.308C149.336 28.612 149.516 27.868 149.875 27.076C150.26 26.284 150.62 25.612 150.956 25.06C151.34 24.484 151.856 23.884 152.504 23.26C153.152 22.636 153.86 22.108 154.628 21.676C155.396 21.244 156.14 21.028 156.86 21.028C157.484 21.028 157.916 21.184 158.156 21.496C158.396 21.784 158.516 22.132 158.516 22.54C158.516 23.284 158.288 23.896 157.832 24.376C157.4 24.856 156.86 25.252 156.212 25.564C155.564 25.852 154.94 26.092 154.34 26.284C153.98 26.38 153.56 26.476 153.08 26.572C152.6 26.668 152.144 26.716 151.712 26.716C151.544 27.148 151.412 27.568 151.316 27.976C151.22 28.384 151.172 28.756 151.172 29.092C151.172 29.5 151.268 29.836 151.46 30.1C151.676 30.364 152.024 30.496 152.504 30.496C152.696 30.496 152.924 30.472 153.188 30.424C153.452 30.376 153.74 30.304 154.052 30.208C154.772 29.968 155.48 29.584 156.176 29.056C156.872 28.528 157.508 27.964 158.084 27.364C158.684 26.74 159.14 26.224 159.452 25.816C159.524 25.888 159.56 25.972 159.56 26.068C159.56 26.188 159.476 26.38 159.308 26.644C158.828 27.316 158.204 28.012 157.436 28.732C156.668 29.452 155.816 30.064 154.88 30.568C153.944 31.048 152.972 31.288 151.964 31.288ZM152 25.996C152.312 26.02 152.66 26.02 153.044 25.996C153.452 25.948 153.848 25.864 154.232 25.744C155.216 25.456 155.924 25 156.356 24.376C156.812 23.728 157.04 23.152 157.04 22.648C157.04 22.36 156.98 22.12 156.86 21.928C156.74 21.736 156.548 21.64 156.284 21.64C155.588 21.64 154.964 21.904 154.412 22.432C153.86 22.936 153.38 23.524 152.972 24.196C152.564 24.868 152.24 25.468 152 25.996ZM161.036 31.576C160.604 31.576 160.148 31.516 159.668 31.396C159.188 31.276 158.756 31.084 158.372 30.82C158.012 30.532 157.772 30.148 157.652 29.668C157.628 29.596 157.616 29.488 157.616 29.344C157.616 29.008 157.688 28.636 157.832 28.228C158 27.82 158.204 27.532 158.444 27.364C158.54 27.316 158.612 27.316 158.66 27.364C158.732 27.412 158.744 27.46 158.696 27.508C158.672 27.58 158.636 27.676 158.588 27.796C158.54 27.892 158.504 28 158.48 28.12C158.408 28.744 158.54 29.296 158.876 29.776C159.02 29.968 159.188 30.148 159.38 30.316C159.596 30.484 159.8 30.628 159.992 30.748C160.16 30.844 160.364 30.916 160.604 30.964C160.844 30.988 161.084 31 161.324 31C161.708 31 162.08 30.952 162.44 30.856C162.8 30.76 163.064 30.604 163.232 30.388C163.544 30.004 163.7 29.572 163.7 29.092C163.7 28.732 163.604 28.348 163.412 27.94C163.22 27.532 162.92 27.1 162.512 26.644C162.248 26.356 161.996 26.044 161.756 25.708C161.516 25.372 161.36 25.012 161.288 24.628C161.264 24.556 161.24 24.484 161.216 24.412C161.216 24.34 161.216 24.268 161.216 24.196C160.904 24.652 160.58 25.084 160.244 25.492C159.932 25.876 159.656 26.212 159.416 26.5C159.32 26.644 159.236 26.716 159.164 26.716C159.116 26.716 159.092 26.668 159.092 26.572C159.092 26.356 159.188 26.128 159.38 25.888C159.572 25.672 159.788 25.408 160.028 25.096C160.268 24.76 160.46 24.496 160.604 24.304C161.012 23.704 161.312 23.236 161.504 22.9C161.72 22.54 161.948 22.216 162.188 21.928C162.452 21.616 162.776 21.364 163.16 21.172C163.568 20.98 163.988 20.884 164.42 20.884C164.924 20.884 165.38 20.968 165.788 21.136C166.22 21.28 166.448 21.664 166.472 22.288C166.472 22.576 166.412 22.876 166.292 23.188C166.196 23.476 166.088 23.752 165.968 24.016C165.896 24.16 165.788 24.268 165.644 24.34C165.524 24.388 165.464 24.364 165.464 24.268C165.464 24.172 165.476 24.064 165.5 23.944C165.524 23.824 165.536 23.716 165.536 23.62C165.536 23.212 165.464 22.852 165.32 22.54C165.2 22.204 165.02 21.964 164.78 21.82C164.54 21.652 164.288 21.568 164.024 21.568C163.64 21.568 163.268 21.724 162.908 22.036C162.548 22.324 162.368 22.708 162.368 23.188C162.368 23.236 162.368 23.296 162.368 23.368C162.368 23.44 162.38 23.5 162.404 23.548C162.5 23.932 162.788 24.364 163.268 24.844C163.748 25.324 164.12 25.744 164.384 26.104C164.84 26.728 165.068 27.364 165.068 28.012C165.068 28.66 164.876 29.26 164.492 29.812C164.132 30.34 163.64 30.76 163.016 31.072C162.416 31.408 161.756 31.576 161.036 31.576ZM168.684 31.108C168.444 31.108 168.24 31.06 168.072 30.964C167.904 30.868 167.82 30.688 167.82 30.424C167.82 30.088 167.904 29.692 168.072 29.236C168.264 28.78 168.468 28.324 168.684 27.868C168.9 27.412 169.08 27.04 169.224 26.752C169.344 26.536 169.5 26.2 169.692 25.744C169.908 25.264 170.124 24.772 170.34 24.268C170.58 23.74 170.772 23.296 170.916 22.936C171.084 22.576 171.168 22.396 171.168 22.396C170.952 22.636 170.664 22.972 170.304 23.404C169.968 23.836 169.596 24.292 169.188 24.772C168.804 25.228 168.444 25.66 168.108 26.068C167.796 26.476 167.568 26.776 167.424 26.968C167.352 27.064 167.292 27.112 167.244 27.112C167.196 27.112 167.172 27.052 167.172 26.932C167.172 26.74 167.232 26.56 167.352 26.392C167.64 26.032 167.988 25.6 168.396 25.096C168.804 24.568 169.212 24.04 169.62 23.512C170.052 22.984 170.424 22.516 170.736 22.108C170.544 22.108 170.292 22.12 169.98 22.144C169.692 22.168 169.428 22.204 169.188 22.252C168.948 22.276 168.816 22.288 168.792 22.288C168.672 22.288 168.684 22.192 168.828 22C168.972 21.808 169.164 21.616 169.404 21.424C169.644 21.232 169.824 21.136 169.944 21.136C169.968 21.136 170.16 21.148 170.52 21.172C170.88 21.172 171.144 21.172 171.312 21.172C171.792 20.524 172.26 19.78 172.716 18.94C173.196 18.1 173.664 17.176 174.12 16.168C174.312 16.144 174.636 16.012 175.092 15.772C175.572 15.508 175.944 15.244 176.208 14.98C176.328 14.86 176.424 14.8 176.496 14.8C176.64 14.8 176.64 14.896 176.496 15.088C176.328 15.28 176.04 15.688 175.632 16.312C175.224 16.912 174.768 17.644 174.264 18.508C173.76 19.348 173.28 20.236 172.824 21.172H175.74C176.004 21.172 176.136 21.208 176.136 21.28C176.136 21.376 175.956 21.472 175.596 21.568C175.188 21.688 174.756 21.76 174.3 21.784C173.868 21.808 173.46 21.856 173.076 21.928C172.716 22 172.452 22.156 172.284 22.396C172.14 22.564 171.936 22.924 171.672 23.476C171.408 24.028 171.12 24.664 170.808 25.384C170.52 26.08 170.268 26.788 170.052 27.508C169.836 28.204 169.704 28.792 169.656 29.272V29.416C169.656 29.608 169.716 29.764 169.836 29.884C169.956 30.004 170.076 30.064 170.196 30.064C170.508 30.064 170.904 29.872 171.384 29.488C171.888 29.104 172.404 28.648 172.932 28.12C173.46 27.568 173.916 27.064 174.3 26.608C174.468 26.416 174.612 26.236 174.732 26.068C174.876 25.9 174.96 25.792 174.984 25.744C175.032 25.84 175.056 25.912 175.056 25.96C175.056 26.104 175.008 26.26 174.912 26.428C174.84 26.596 174.756 26.74 174.66 26.86C174.204 27.46 173.652 28.096 173.004 28.768C172.356 29.416 171.66 29.968 170.916 30.424C170.196 30.88 169.452 31.108 168.684 31.108Z" fill="#354D6A"/>
</svg>
